<svg width="297" height="200" viewBox="0 0 297 200" fill="none" xmlns="http://www.w3.org/2000/svg">
<rect width="296.667" height="200" rx="12" fill="#C4E9FD"/>
<path d="M173.904 102.6L171.764 76.6591H158.836C158.836 76.6591 148.994 96.6324 148.123 99.3493H147.986L137.609 76.6591H124.618L122.478 99.1508L120.674 121.977H128.575C131.984 121.977 133.328 120.514 133.602 116.941C133.602 116.941 134.946 96.0369 134.734 92.9851H134.871L135.269 94.3746C135.804 96.2354 143.171 114.087 143.171 114.087H152.876C152.876 114.087 160.242 96.5084 161.175 92.9851H161.312L162.445 116.941C162.718 120.526 164.124 121.977 167.471 121.977H175.373L173.904 102.6Z" fill="#092256"/>
<path fill-rule="evenodd" clip-rule="evenodd" d="M116.839 156.582C125.507 158.398 136.57 159.631 148.758 159.662H149.171C161.358 159.662 172.417 158.444 181.08 156.63C185.412 155.723 189.158 154.664 192.155 153.528C195.126 152.401 197.439 151.168 198.837 149.876C200.394 148.473 201.768 146.057 202.966 142.986C204.175 139.886 205.241 136.017 206.126 131.608C207.897 122.787 208.959 111.729 208.959 100.186C208.959 88.6418 207.894 77.5624 206.122 68.731C205.236 64.3165 204.169 60.4441 202.961 57.3481C201.765 54.2831 200.391 51.8753 198.833 50.4923C197.438 49.2135 195.127 47.9912 192.157 46.8707C189.16 45.7403 185.412 44.6843 181.079 43.7767C172.411 41.9612 161.348 40.7277 149.16 40.6965L148.747 40.6965L148.745 40.6965C136.564 40.7277 125.504 41.9612 116.842 43.772C112.513 44.6772 108.769 45.7296 105.778 46.8547C102.813 47.9697 100.508 49.1851 99.122 50.4551C97.5559 51.8467 96.1751 54.2606 94.9734 57.3316C93.7598 60.433 92.6895 64.309 91.8011 68.726C90.0239 77.5622 88.959 88.6418 88.959 100.186C88.959 110.001 89.8272 120.898 91.4994 130.065C92.3354 134.647 93.3762 138.819 94.6199 142.217C95.8515 145.581 97.3225 148.302 99.0847 149.867C100.48 151.145 102.791 152.368 105.761 153.488C108.758 154.618 112.506 155.674 116.839 156.582ZM193.523 144.021L193.455 144.089C192.877 144.625 191.458 145.401 189.119 146.263C186.811 147.114 183.714 148.01 179.9 148.827C172.275 150.46 161.827 151.766 149.171 151.766H148.775C134.485 151.729 123.997 150.074 117.721 148.698C113.39 147.744 110.242 146.752 108.072 145.898C105.866 145.03 104.748 144.335 104.398 144.013L104.392 144.007L104.385 144.001C104.169 143.81 103.859 143.411 103.482 142.732C103.114 142.069 102.713 141.193 102.295 140.103C101.459 137.924 100.576 134.94 99.7715 131.195C98.1623 123.708 96.8737 113.229 96.8737 100.173C96.8737 85.6872 98.4591 75.3295 99.7777 69.1982C100.715 64.8397 101.706 61.751 102.563 59.6682C102.991 58.6264 103.383 57.8445 103.714 57.2849C104.053 56.7095 104.3 56.4164 104.424 56.3067L104.429 56.302L104.434 56.2973C104.764 55.9948 105.872 55.3085 108.078 54.4442C110.248 53.5945 113.402 52.6022 117.745 51.6488C124.021 50.272 134.521 48.6177 148.761 48.5806H149.157C163.447 48.6177 173.935 50.2722 180.211 51.6489C184.541 52.596 187.688 53.5881 189.858 54.4435C192.063 55.3126 193.182 56.0112 193.532 56.3334L193.539 56.3398L193.546 56.346C193.653 56.4404 193.891 56.7203 194.226 57.2918C194.551 57.8452 194.94 58.6234 195.368 59.6631C196.222 61.7418 197.216 64.834 198.153 69.1983C199.471 75.3295 201.057 85.6872 201.057 100.173C201.057 114.659 199.471 125.017 198.153 131.148C197.216 135.506 196.222 138.595 195.368 140.674C194.94 141.714 194.551 142.493 194.226 143.048C193.89 143.621 193.652 143.906 193.541 144.005L193.523 144.021Z" fill="#092256"/>
</svg>
